<?xml version="1.0" encoding="UTF-8" standalone="no"?><!DOCTYPE svg PUBLIC "-//W3C//DTD SVG 1.1//EN" "http://www.w3.org/Graphics/SVG/1.1/DTD/svg11.dtd"><svg width="100%" height="100%" viewBox="0 0 3508 2481" version="1.1" xmlns="http://www.w3.org/2000/svg" xmlns:xlink="http://www.w3.org/1999/xlink" xml:space="preserve" xmlns:serif="http://www.serif.com/" style="fill-rule:evenodd;clip-rule:evenodd;stroke-linejoin:round;stroke-miterlimit:2;"><path d="M3040.72,764.104c-0,-225.708 -183.246,-408.954 -408.954,-408.954l-1755.66,0c-225.708,0 -408.954,183.246 -408.954,408.954l0,817.907c0,225.708 183.246,408.954 408.954,408.954l1755.66,-0c225.708,-0 408.954,-183.246 408.954,-408.954l-0,-817.907Zm-52.353,-11.344c0,-202.988 -197.801,-350.789 -400.789,-350.789l-1670.29,-0c-202.988,-0 -395.789,147.801 -395.789,350.789l-0,839.579c-0,202.989 192.801,350.79 395.789,350.79l1670.29,-0c202.988,-0 400.789,-147.801 400.789,-350.79l0,-839.579Z" style="fill:#fff;"/><g><path d="M1514.39,942.493c3.594,13.477 4.043,28.638 1.348,45.484c-2.695,16.846 -7.412,34.478 -14.151,52.896c-6.738,18.419 -14.936,37.061 -24.595,55.929c-9.658,18.867 -19.204,37.061 -28.638,54.58l-6.738,10.782c0,0.449 -1.797,3.931 -5.391,10.444c-3.593,6.514 -7.636,15.049 -12.129,25.606c-4.492,10.557 -8.76,22.237 -12.803,35.039c-4.043,12.803 -6.738,25.494 -8.086,38.072c-1.347,12.578 -0.673,24.371 2.022,35.377c2.695,11.006 8.76,19.878 18.194,26.616l-21.563,29.649c-13.926,-10.332 -23.472,-22.798 -28.638,-37.398c-5.166,-14.6 -7.525,-29.761 -7.076,-45.484c0.45,-15.723 2.92,-31.446 7.413,-47.168c4.492,-15.723 9.321,-29.986 14.487,-42.789c5.166,-12.803 9.995,-23.36 14.488,-31.67c4.492,-8.311 6.963,-12.915 7.412,-13.814l6.738,-11.455c3.145,-5.391 7.075,-12.578 11.792,-21.563c4.717,-8.984 9.771,-18.867 15.162,-29.649c5.39,-10.781 10.669,-22.236 15.835,-34.365c5.166,-12.129 9.546,-23.921 13.14,-35.377c3.593,-11.455 6.176,-22.461 7.749,-33.018c1.572,-10.556 1.235,-19.653 -1.011,-27.29c-1.797,-6.738 -5.84,-11.904 -12.129,-15.498c-11.68,-6.289 -25.157,-6.851 -40.43,-1.685c-15.274,5.166 -31.446,14.375 -48.516,27.627c-17.071,13.253 -34.703,29.762 -52.897,49.527c-18.193,19.766 -35.938,40.992 -53.233,63.678c-17.295,22.686 -33.916,45.933 -49.863,69.742c-15.948,23.809 -29.986,46.27 -42.115,67.383l-0,-0.673l-83.556,145.548l-31.67,-18.193l83.555,-145.549l0.674,0l78.839,-137.462c15.723,-30.997 23.472,-56.041 23.247,-75.133c-0.224,-19.092 -3.93,-32.232 -11.118,-39.42c-4.492,-4.941 -9.883,-7.636 -16.172,-8.086c-6.289,-0.449 -12.803,1.124 -19.541,4.717c-20.664,10.332 -40.43,32.569 -59.298,66.71c-11.68,21.114 -18.53,40.093 -20.552,56.939c-2.021,16.846 -1.235,30.435 2.359,40.767c2.695,8.985 6.513,14.375 11.455,16.172l-15.498,33.018c-14.375,-6.738 -24.708,-19.541 -30.997,-38.408c-5.39,-17.52 -6.177,-37.398 -2.358,-59.635c3.818,-22.236 11.792,-44.585 23.921,-67.047c22.91,-40.879 47.618,-67.832 74.122,-80.86c13.926,-7.187 27.964,-9.883 42.115,-8.086c14.15,1.797 26.167,7.862 36.05,18.194c9.883,9.883 16.509,22.124 19.878,36.724c3.369,14.6 3.257,31.109 -0.337,49.527c16.172,-18.418 32.906,-35.377 50.201,-50.875c17.295,-15.498 34.478,-28.076 51.548,-37.735c17.071,-9.658 34.029,-15.61 50.875,-17.856c16.846,-2.246 32.681,0.673 47.505,8.76c14.825,8.535 24.483,21.113 28.975,37.734Z" style="fill:#fff;fill-rule:nonzero;"/><path d="M1850.63,1160.82c-4.043,7.637 -8.535,15.723 -13.476,24.258c-4.493,7.637 -9.546,16.509 -15.162,26.617c-5.615,10.107 -11.792,21.001 -18.53,32.681c-13.477,22.91 -27.066,39.082 -40.767,48.516c-13.701,9.434 -25.718,15.274 -36.05,17.52c-2.246,0.449 -4.605,0.786 -7.076,1.01c-2.47,0.225 -4.829,0.337 -7.075,0.337c-12.578,0 -23.36,-2.92 -32.344,-8.76c-7.637,-4.941 -13.477,-10.556 -17.52,-16.845c-4.043,-6.29 -6.963,-13.253 -8.76,-20.889c-11.679,12.578 -25.268,23.584 -40.767,33.018c-15.498,9.433 -32.681,14.15 -51.548,14.15c-8.535,0 -17.52,-1.347 -26.954,-4.043c-18.867,-5.391 -32.681,-16.621 -41.44,-33.692c-8.76,-17.07 -11.343,-38.184 -7.75,-63.34c2.696,-20.664 8.985,-41.666 18.868,-63.004c9.883,-21.338 21.899,-40.767 36.05,-58.287c14.151,-17.519 29.986,-31.895 47.505,-43.125c17.52,-11.231 35.265,-16.846 53.234,-16.846c32.793,-0 57.051,10.108 72.774,30.323c2.246,3.593 4.38,7.299 6.401,11.118c2.022,3.818 3.482,7.749 4.38,11.792l25.606,-44.473l31.67,18.193l-76.817,133.42l-2.022,4.043l0,0.674c0,-0 -0.224,0.449 -0.673,1.347c-2.247,4.942 -4.605,11.006 -7.076,18.194c-2.47,7.188 -4.38,14.487 -5.727,21.9c-1.348,7.412 -1.46,14.375 -0.337,20.889c1.123,6.513 4.38,11.342 9.77,14.487c5.391,3.145 11.905,4.043 19.542,2.695c5.39,-1.347 12.915,-5.166 22.573,-11.455c9.658,-6.289 19.878,-18.643 30.66,-37.061c6.738,-11.68 12.915,-22.461 18.53,-32.344c5.615,-9.883 10.669,-18.643 15.161,-26.28c4.942,-8.535 9.434,-16.621 13.477,-24.258l31.67,17.52Zm-305.921,112.531c10.781,3.144 21.113,3.369 30.996,0.674c9.883,-2.696 19.205,-6.963 27.965,-12.803c8.759,-5.84 16.846,-12.803 24.258,-20.889c7.412,-8.086 13.926,-16.06 19.541,-23.921c5.615,-7.862 10.22,-15.049 13.814,-21.563c3.593,-6.514 6.064,-11.118 7.412,-13.814l4.717,-8.086l16.846,-28.975c0.449,-3.144 1.123,-7.3 2.021,-12.466c0.898,-5.166 1.235,-10.669 1.011,-16.509c-0.225,-5.84 -1.011,-11.567 -2.359,-17.183c-1.347,-5.615 -3.593,-10.669 -6.738,-15.161c-8.086,-10.781 -22.461,-16.172 -43.125,-16.172c-12.579,0 -25.494,4.717 -38.746,14.151c-13.252,9.433 -25.494,21.45 -36.724,36.05c-11.231,14.6 -20.777,30.772 -28.638,48.516c-7.862,17.744 -12.915,34.703 -15.161,50.875c-0.899,5.39 -1.348,11.118 -1.348,17.182c-0,6.065 0.786,11.793 2.358,17.183c1.573,5.391 4.043,10.108 7.413,14.151c3.369,4.043 8.198,6.963 14.487,8.76Z" style="fill:#fff;fill-rule:nonzero;"/><path d="M1918.69,912.171l-44.473,92.315l-33.692,-14.824l37.061,-96.359l41.104,18.868Z" style="fill:#fff;fill-rule:nonzero;"/><path d="M2260.33,1160.82c-4.043,7.637 -8.536,15.723 -13.477,24.258c-4.492,7.637 -9.546,16.509 -15.161,26.617c-5.616,10.107 -11.792,21.001 -18.531,32.681c-13.477,22.91 -27.066,39.082 -40.767,48.516c-13.701,9.434 -25.718,15.274 -36.05,17.52c-2.246,0.449 -4.605,0.786 -7.075,1.01c-2.471,0.225 -4.83,0.337 -7.076,0.337c-12.578,0 -23.359,-2.92 -32.344,-8.76c-7.637,-4.941 -13.477,-10.556 -17.52,-16.845c-4.043,-6.29 -6.963,-13.253 -8.759,-20.889c-11.68,12.578 -25.269,23.584 -40.767,33.018c-15.499,9.433 -32.682,14.15 -51.549,14.15c-8.535,0 -17.52,-1.347 -26.953,-4.043c-18.868,-5.391 -32.681,-16.621 -41.441,-33.692c-8.76,-17.07 -11.343,-38.184 -7.749,-63.34c2.695,-20.664 8.984,-41.666 18.867,-63.004c9.883,-21.338 21.9,-40.767 36.05,-58.287c14.151,-17.519 29.986,-31.895 47.506,-43.125c17.519,-11.231 35.264,-16.846 53.233,-16.846c32.793,-0 57.051,10.108 72.774,30.323c2.246,3.593 4.38,7.299 6.401,11.118c2.022,3.818 3.482,7.749 4.38,11.792l25.606,-44.473l31.67,18.193l-76.817,133.42l-2.021,4.043l-0,0.674c-0,-0 -0.225,0.449 -0.674,1.347c-2.246,4.942 -4.605,11.006 -7.076,18.194c-2.47,7.188 -4.379,14.487 -5.727,21.9c-1.348,7.412 -1.46,14.375 -0.337,20.889c1.123,6.513 4.38,11.342 9.771,14.487c5.39,3.145 11.904,4.043 19.541,2.695c5.391,-1.347 12.915,-5.166 22.573,-11.455c9.659,-6.289 19.878,-18.643 30.66,-37.061c6.738,-11.68 12.915,-22.461 18.53,-32.344c5.616,-9.883 10.669,-18.643 15.162,-26.28c4.941,-8.535 9.433,-16.621 13.476,-24.258l31.671,17.52Zm-305.922,112.531c10.782,3.144 21.114,3.369 30.997,0.674c9.883,-2.696 19.204,-6.963 27.964,-12.803c8.76,-5.84 16.846,-12.803 24.258,-20.889c7.412,-8.086 13.926,-16.06 19.541,-23.921c5.615,-7.862 10.22,-15.049 13.814,-21.563c3.594,-6.514 6.064,-11.118 7.412,-13.814l4.717,-8.086l16.846,-28.975c0.449,-3.144 1.123,-7.3 2.021,-12.466c0.899,-5.166 1.236,-10.669 1.011,-16.509c-0.225,-5.84 -1.011,-11.567 -2.358,-17.183c-1.348,-5.615 -3.594,-10.669 -6.739,-15.161c-8.086,-10.781 -22.461,-16.172 -43.125,-16.172c-12.579,0 -25.494,4.717 -38.746,14.151c-13.252,9.433 -25.493,21.45 -36.724,36.05c-11.231,14.6 -20.777,30.772 -28.638,48.516c-7.861,17.744 -12.915,34.703 -15.161,50.875c-0.899,5.39 -1.348,11.118 -1.348,17.182c0,6.065 0.786,11.793 2.359,17.183c1.572,5.391 4.043,10.108 7.412,14.151c3.369,4.043 8.198,6.963 14.487,8.76Z" style="fill:#fff;fill-rule:nonzero;"/><path d="M2353.31,928.343l55.255,-95.685l30.996,18.194l-44.473,77.491l43.125,-0l0,36.387l-64.014,-0l-16.846,29.649l-113.204,196.086c-5.391,10.781 -8.985,20.889 -10.782,30.323c-1.797,8.086 -2.358,16.284 -1.684,24.595c0.673,8.31 4.604,14.936 11.792,19.878c2.246,1.797 6.738,4.155 13.476,7.075c6.739,2.92 14.6,3.481 23.585,1.685c18.867,-4.043 36.387,-19.991 52.559,-47.843c2.246,-3.594 4.268,-6.963 6.064,-10.107c1.797,-3.145 3.594,-6.514 5.391,-10.108l2.695,-4.043c4.942,-8.535 9.322,-16.509 13.14,-23.921c3.819,-7.412 7.3,-13.589 10.445,-18.531c3.594,-5.839 6.738,-11.23 9.433,-16.172l31.671,17.52c-2.696,4.942 -5.84,10.557 -9.434,16.846c-3.145,5.391 -6.738,11.68 -10.781,18.867c-4.043,7.188 -8.536,15.049 -13.477,23.585l-2.022,4.043l-11.455,20.215c-22.461,37.285 -48.067,58.848 -76.817,64.688c-5.391,1.348 -10.781,2.022 -16.172,2.022c-12.578,-0 -23.247,-2.022 -32.007,-6.065c-8.76,-4.043 -14.712,-7.188 -17.857,-9.434c-10.781,-7.637 -18.081,-16.846 -21.9,-27.627c-3.818,-10.781 -5.503,-21.9 -5.053,-33.355c0.449,-11.455 2.358,-22.686 5.727,-33.692c3.369,-11.006 7.075,-20.327 11.118,-27.964l103.097,-178.566l16.846,-29.649l-51.885,-0l-0,-36.387l73.448,-0Z" style="fill:#fff;fill-rule:nonzero;"/><path d="M2414.63,1255.83c7.637,-0 14.263,2.808 19.878,8.423c5.616,5.615 8.423,12.241 8.423,19.878c0,7.637 -2.807,14.263 -8.423,19.878c-5.615,5.616 -12.241,8.423 -19.878,8.423c-7.637,0 -14.263,-2.807 -19.878,-8.423c-5.615,-5.615 -8.423,-12.241 -8.423,-19.878c-0,-7.637 2.808,-14.263 8.423,-19.878c5.615,-5.615 12.241,-8.423 19.878,-8.423Z" style="fill:#fff;fill-rule:nonzero;"/></g><path d="M3010.67,661.853c0,-26.088 -21.18,-47.268 -47.268,-47.268l-2423.36,-0c-26.088,-0 -47.268,21.18 -47.268,47.268l0,94.537c0,26.088 21.18,47.268 47.268,47.268l2423.36,0c26.088,0 47.268,-21.18 47.268,-47.268l0,-94.537Z" style="fill:#fff;"/><path d="M3010.67,1448.92c0,-29.429 -23.893,-53.322 -53.322,-53.322l-2411.26,-0c-29.429,-0 -53.322,23.893 -53.322,53.322l0,106.645c0,29.429 23.893,53.322 53.322,53.322l2411.26,-0c29.429,-0 53.322,-23.893 53.322,-53.322l0,-106.645Z" style="fill:#fff;"/><text x="1458.15px" y="783.837px" style="font-family:'GeosansLight';font-weight:500;font-size:211.66px;fill:#544b7e;">I<tspan x="1487.57px 1583.03px " y="783.837px 783.837px ">ns</tspan>titut<tspan x="1931.42px " y="783.837px ">o</tspan></text><text x="655.847px" y="1567.82px" style="font-family:'GeosansLight';font-weight:500;font-size:211.66px;fill:#544b7e;">Desc<tspan x="1055.88px 1146.68px 1256.11px 1309.24px 1412.95px " y="1567.82px 1567.82px 1567.82px 1567.82px 1567.82px ">ubre </tspan>tu pr<tspan x="1825.48px 1930.88px " y="1567.82px 1567.82px ">op</tspan>ia esenc<tspan x="2700.9px 2739.85px " y="1567.82px 1567.82px ">ia</tspan></text><path d="M2699.98,832.658c21.205,39.382 26.81,71.122 12.399,88.558c-35.531,42.989 -179.363,-17.146 -320.993,-134.204c-141.631,-117.058 -227.77,-246.996 -192.24,-289.985c30.56,-36.975 141.239,2.338 261.744,88.558l-52.412,-0c-66.792,-39.016 -122.417,-53.226 -140.342,-31.538c-25.979,31.432 37.003,126.437 140.557,212.025c103.554,85.588 208.718,129.556 234.696,98.124c6.074,-7.349 7.285,-18.172 4.251,-31.538l52.34,0Z" style="fill:url(#_Linear1);"/><defs><linearGradient id="_Linear1" x1="0" y1="0" x2="1" y2="0" gradientUnits="userSpaceOnUse" gradientTransform="matrix(588,0,0,588,1606,1725)"><stop offset="0" style="stop-color:#ffc806;stop-opacity:1"/><stop offset="0.5" style="stop-color:#fff;stop-opacity:1"/><stop offset="1" style="stop-color:#faa41a;stop-opacity:1"/></linearGradient></defs></svg>