<?xml version="1.0" encoding="utf-8"?>
<!-- Generator: Adobe Illustrator 16.0.0, SVG Export Plug-In . SVG Version: 6.00 Build 0)  -->
<!DOCTYPE svg PUBLIC "-//W3C//DTD SVG 1.1//EN" "http://www.w3.org/Graphics/SVG/1.1/DTD/svg11.dtd">
<svg version="1.1" id="Layer_1" xmlns="http://www.w3.org/2000/svg" xmlns:xlink="http://www.w3.org/1999/xlink" x="0px" y="0px"
	 width="612px" height="313px" viewBox="0 0 612 313" enable-background="new 0 0 612 313" xml:space="preserve">
<g>
	<path fill="#FFFFFF" d="M28.667,25.567v261.865h554.667V25.567H28.667z M574.082,276.938H37.093V34.269h536.989V276.938z
		 M531.959,220.586H73.97v-6.078h457.989V220.586z M531.959,232.188H73.418v-6.63h458.541V232.188z M80.599,206.773H73.97V98.492
		h13.812l70.162,75.134c0,0,3.867,2.763,3.867-2.209V99.044h6.078v107.177h-3.315l-82.592-82.594L80.599,206.773z M220.197,168.566
		c0,10.325-8.371,18.696-18.695,18.696c-10.327,0-18.697-8.371-18.697-18.696c0-10.326,8.371-18.697,18.697-18.697
		C211.826,149.869,220.197,158.24,220.197,168.566z M336.214,168.566c0,10.325-8.371,18.696-18.694,18.696
		c-10.328,0-18.699-8.371-18.699-18.696c0-10.326,8.371-18.697,18.699-18.697C327.843,149.869,336.214,158.24,336.214,168.566z
		 M463.831,168.566c0,10.325-8.371,18.696-18.693,18.696c-10.326,0-18.697-8.371-18.697-18.696c0-10.326,8.371-18.697,18.697-18.697
		C455.46,149.869,463.831,158.24,463.831,168.566z M487.21,206.221v-98.891h-25.965v-8.287h72.371v8.287h-25.414v99.442
		L487.21,206.221z"/>
	<rect x="76.18" y="239.358" fill="none" width="491.139" height="36.465"/>
	
		<text transform="matrix(1 0 0 1 76.1797 259.6807)" fill="#FFFFFF" stroke="#FFFFFF" stroke-width="0.3" stroke-miterlimit="10" font-family="'Steiner'" font-size="24.1977">El Conocimiento descubre tu esencia</text>
	<path fill="#FFFFFF" d="M268.907,132.191c-12.15-12.15-18.649,0-18.649,0l-27.125,74.03h7.347l5.085-19.393h37.864l6.782,19.393
		h16.952L268.907,132.191z M238.956,180.509l12.15-34.472c2.826-7.629,6.782,0,6.782,0l12.997,34.472H238.956z"/>
	<path fill="#FFFFFF" d="M381.606,132.191c-12.148-12.15-18.646,0-18.646,0l-27.126,74.03h7.348l5.083-19.393h37.866l6.779,19.393
		h16.955L381.606,132.191z M351.657,180.509l12.152-34.472c2.822-7.629,6.778,0,6.778,0l13,34.472H351.657z"/>
	<path fill="#FFFFFF" d="M306,122.524l8.703-23.618c0,0,1.243-7.044,9.116-2.9c0,0,2.9,2.9,0,7.873l-14.503,17.679
		C309.316,121.558,305.308,126.53,306,122.524z"/>
	<rect x="173.607" y="40.483" fill="none" width="264.631" height="42.537"/>
	<text transform="matrix(1 0 0 1 173.6055 74.0532)"><tspan x="0" y="0" fill="#FFFFFF" font-family="'ResagokrBold'" font-size="53.036" letter-spacing="12">I</tspan><tspan x="26.093" y="0" fill="#FFFFFF" font-family="'ResagokrBold'" font-size="29.8327" letter-spacing="11">N</tspan><tspan x="56.493" y="0" fill="#FFFFFF" font-family="'ResagokrBold'" font-size="29.8327" letter-spacing="13">STITU</tspan><tspan x="200.136" y="0" fill="#FFFFFF" font-family="'ResagokrBold'" font-size="29.8327" letter-spacing="15">T</tspan><tspan x="232.684" y="0" fill="#FFFFFF" font-family="'ResagokrBold'" font-size="29.8327" letter-spacing="13">O</tspan></text>
	<circle fill="#FFFFFF" cx="293.535" cy="48.321" r="2.558"/>
</g>
<g>
	<g>
		<path fill="#4378BC" d="M324,452.5c3.225,0,3.225-5,0-5S320.775,452.5,324,452.5L324,452.5z"/>
	</g>
</g>
</svg>
